<?xml version="1.0" encoding="UTF-8"?>
<!DOCTYPE svg PUBLIC "-//W3C//DTD SVG 1.1//EN" "http://www.w3.org/Graphics/SVG/1.1/DTD/svg11.dtd">
<!-- Creator: CorelDRAW X7 -->
<svg xmlns="http://www.w3.org/2000/svg" xml:space="preserve" width="55.7287mm" height="44.148mm" version="1.1" shape-rendering="geometricPrecision" text-rendering="geometricPrecision" image-rendering="optimizeQuality" fill-rule="evenodd" clip-rule="evenodd"
viewBox="0 0 2467 1955"
 xmlns:xlink="http://www.w3.org/1999/xlink">
 <g id="Квадрат">
  <metadata id="CorelCorpID_0Corel-Layer"/>
  <g id="_1594116955200">
   <polygon fill="black" points="88,1796 88,1867 2380,1867 2380,1571 2467,1571 2467,1955 0,1955 0,1796 "/>
   <polygon fill="black" points="2380,159 2380,88 88,88 88,384 0,384 0,0 2467,0 2467,159 "/>
  </g>
 </g>
 <g id="Текст">
  <metadata id="CorelCorpID_1Corel-Layer"/>
  <path fill="#EA5400" fill-rule="nonzero" d="M525 977c-2,-4 -1,-8 1,-12 3,-3 6,-5 10,-5l436 0c2,0 3,1 4,2l85 30c5,3 8,7 8,11l0 317c0,5 -2,8 -5,12l-18 12c-42,32 -87,56 -136,73 -49,16 -100,25 -154,25 -106,0 -196,-16 -267,-47 -72,-30 -129,-69 -173,-114 -43,-45 -74,-94 -92,-146 -18,-51 -28,-98 -28,-141 0,-1 1,-4 1,-6 0,-3 1,-5 1,-6l0 -12c-1,-2 -2,-5 -2,-10 0,-61 12,-119 37,-174 24,-55 59,-104 105,-147 11,-11 22,-21 33,-28 2,-2 3,-3 5,-4 1,-1 2,-2 4,-4 9,-7 18,-13 28,-19 9,-5 18,-11 28,-16l30 -15c19,-8 40,-16 63,-22 5,-2 8,-3 10,-3 38,-11 79,-16 123,-16l2 0 7 0 10 0c39,0 78,4 115,14 38,9 72,20 105,34 32,14 60,28 86,44 25,15 45,29 60,40l20 17c6,4 8,9 5,16l-61 186c-3,9 -10,12 -20,9l-76 -29 -3 0c0,0 -1,0 -1,-1l-36 -34 -19 -17c-2,-1 -3,-2 -3,-3 0,-1 -1,-2 -3,-2 0,-1 -1,-2 -1,-2 -1,-1 -2,-1 -3,-2 -1,0 -2,-1 -2,-3 -1,0 -2,0 -3,-1 -1,-1 -2,-1 -2,-2 -1,0 -2,-1 -4,-3l-1 0c-1,-2 -2,-3 -3,-3 -2,0 -3,-1 -4,-2l0 -1c-2,-2 -5,-3 -7,-5 -3,-1 -5,-2 -8,-4 0,-1 -1,-1 -1,-1 -1,0 -1,-1 -2,-1 0,0 -1,-1 -3,-2 -1,0 -1,0 -1,0 0,-1 0,-1 -1,-1l-8 -4c-6,1 -12,2 -19,2 -6,0 -13,0 -21,0 -37,0 -73,6 -106,19 -33,13 -63,31 -89,56 -24,23 -43,49 -56,78 -13,28 -20,59 -20,90 0,32 7,62 20,91 13,29 32,54 56,77 7,7 14,14 23,20 8,5 17,11 26,17 2,0 4,0 6,1 3,0 5,0 6,0 2,0 3,1 4,1 0,0 1,1 3,1l6 0 1 0c2,0 3,0 3,0 1,1 2,1 3,1l2 0 5 0 2 0 4 0 7 0 7 0 2 0 4 0 4 0 2 0 4 0c2,0 2,-1 2,-1l4 0 3 0 5 0 1 0c2,-1 3,-2 5,-2l1 0c3,0 4,0 5,-1l-19 0 -88 -31c-4,-2 -7,-4 -8,-8l-71 -183zm404 45c0,-7 -3,-10 -9,-10l-316 0c-7,0 -10,3 -10,10 0,1 0,3 1,3l14 37 18 47c0,1 1,2 2,3l1 1c1,1 2,1 5,1l185 0c3,0 6,2 7,5l0 1 2 0 0 4 0 84 0 4c-1,0 -2,1 -2,2 -1,1 -1,2 -2,3l-1 0c-1,0 -2,0 -2,0 0,1 0,1 -1,1 -1,1 -1,1 -2,1 0,0 -1,1 -2,1 -1,1 -3,2 -5,2 -1,1 -3,1 -5,2 0,1 -1,1 -1,1 -1,0 -1,1 -2,2 -1,0 -2,1 -3,1 -1,0 -1,0 -2,1 -2,0 -3,1 -4,1 -3,2 -6,3 -8,3 -1,1 -3,1 -5,2 -1,0 -3,1 -5,2 -1,0 -3,1 -5,2 -1,0 -3,1 -5,1 -4,2 -8,3 -11,4 -4,0 -8,1 -12,3 -2,0 -4,0 -5,0 -2,1 -4,1 -5,1 -1,1 -3,1 -7,1 0,1 -2,1 -5,1 -9,2 -18,3 -28,4 -9,1 -19,1 -28,1 -61,0 -116,-14 -167,-43 -1,-1 -3,-2 -6,-4 -5,-3 -10,-7 -15,-9 -5,-3 -10,-7 -15,-11 -4,-3 -7,-5 -10,-8 -3,-2 -6,-5 -10,-8 -3,-3 -5,-4 -7,-5 -1,-2 -1,-3 -2,-3 -1,-1 -2,-2 -3,-4 -4,-2 -7,-5 -10,-10 -8,-7 -15,-15 -21,-25 -1,-1 -2,-2 -2,-3 -1,-1 -2,-2 -3,-4 -1,-1 -1,-2 -2,-3 0,0 -1,-1 -2,-2 -6,-10 -12,-20 -16,-29 -20,-38 -30,-79 -30,-124 0,-44 10,-85 30,-124 3,-6 7,-12 9,-17 3,-6 7,-11 11,-17 1,-2 2,-4 4,-5 5,-8 10,-14 16,-20 0,-1 0,-1 1,-1 2,-2 3,-4 5,-5 1,-2 2,-4 4,-5l6 -7 5 -5c9,-8 18,-16 28,-23 3,-2 6,-4 9,-7 3,-1 6,-3 10,-6 3,-2 6,-5 10,-6 52,-31 110,-46 173,-46 37,0 74,5 110,17 2,1 3,1 3,1 1,0 2,1 3,2 5,1 8,2 11,3 3,1 7,2 11,4 1,1 3,2 6,4l15 7c20,11 39,24 59,39 0,0 0,1 2,3l1 0c5,1 9,0 10,-5 0,0 1,-1 2,-2l26 -81c1,-1 1,-2 1,-4l0 -1c-1,-1 -1,-2 -1,-4 -1,0 -1,0 -1,-1l-2 0 0 -1c-2,-2 -4,-3 -6,-5 -3,-1 -4,-2 -6,-4l-11 -7c-2,-1 -3,-2 -4,-3 -1,-1 -2,-2 -4,-2 -5,-4 -9,-6 -12,-7 -1,-1 -3,-3 -7,-5 -63,-34 -132,-51 -206,-51 -71,0 -138,16 -198,48l-8 3c-4,3 -8,5 -12,8 -5,2 -9,5 -13,7 -12,7 -22,14 -32,22 -10,8 -20,17 -29,26 -40,37 -71,80 -92,129 -21,49 -32,100 -32,154 0,50 9,96 26,140 18,45 43,85 77,122 4,4 7,8 10,11 3,3 7,7 11,11 34,30 70,54 107,73 10,5 21,9 32,13 10,3 22,7 33,10 4,2 11,4 19,5 5,2 8,3 10,3 32,7 62,10 91,10 18,0 35,-1 53,-3 17,-2 34,-5 51,-10 2,0 3,-1 4,-1 2,0 3,0 5,-1 19,-5 38,-11 57,-19l8 -4c14,-5 28,-13 42,-22 8,-4 14,-8 20,-13 2,0 3,-1 5,-2 2,-1 3,-2 5,-4 2,-2 3,-3 5,-3 1,0 2,-1 4,-3l2 -3c1,0 2,-2 2,-5l0 -243zm390 -489l86 33c4,1 6,4 6,7l0 857c0,9 -4,13 -13,13l-184 0c-2,0 -4,-1 -5,-1l-83 -30c-6,-3 -9,-7 -9,-13l0 -866 199 0 3 0zm-143 49c-6,0 -9,3 -9,9l0 757c0,8 4,12 13,12l75 0c8,0 12,-4 12,-12l0 -757c0,-6 -3,-9 -8,-9l-83 0zm581 192c-8,0 -12,4 -12,13l0 162c0,12 5,18 16,18l295 0 4 0 83 31c6,2 9,5 9,11l0 178c0,8 -4,12 -13,12l-382 0c-8,0 -12,4 -12,13l0 217c0,9 -5,14 -14,14l-183 0c-1,0 -3,-1 -5,-1l-82 -30c-6,-2 -9,-6 -9,-13l0 -861 705 0c2,0 5,1 6,1l84 30c5,4 7,7 7,12l0 181c0,8 -3,12 -11,12l-486 0zm-256 -183c0,0 0,1 -1,2 0,1 0,2 0,3l0 754c0,8 3,12 10,12l80 0c2,0 5,-2 7,-4 2,-2 3,-4 3,-8l0 -223c0,-7 3,-10 10,-10l387 0c8,0 13,-4 13,-13l0 -75c0,-8 -5,-12 -13,-12l-387 0c-3,0 -6,-2 -9,-5l0 -2 0 -1c-1,-1 -1,-2 -1,-4l0 -306c0,-1 0,-3 0,-3 1,-1 1,-2 1,-3 3,-3 6,-5 9,-5l492 0c7,0 10,-3 10,-10l0 -82c0,-4 -1,-6 -3,-8 -1,-2 -4,-2 -7,-2l-592 0c-4,0 -7,1 -9,5z"/>
 </g>
</svg>
