<?xml version="1.0" encoding="UTF-8"?>
<!DOCTYPE svg PUBLIC "-//W3C//DTD SVG 1.1//EN" "http://www.w3.org/Graphics/SVG/1.1/DTD/svg11.dtd">
<!-- Creator: CorelDRAW X7 -->
<svg xmlns="http://www.w3.org/2000/svg" xml:space="preserve" width="55.7287mm" height="36.2074mm" version="1.1" shape-rendering="geometricPrecision" text-rendering="geometricPrecision" image-rendering="optimizeQuality" fill-rule="evenodd" clip-rule="evenodd"
viewBox="0 0 2467 1603"
 xmlns:xlink="http://www.w3.org/1999/xlink">
 <g id="Квадрат">
  <metadata id="CorelCorpID_0Corel-Layer"/>
  <g id="_2533350264480">
   <polygon fill="black" points="88,1444 88,1515 2380,1515 2380,1220 2467,1220 2467,1603 0,1603 0,1444 "/>
   <polygon fill="black" points="2380,159 2380,88 88,88 88,384 0,384 0,0 2467,0 2467,159 "/>
  </g>
 </g>
 <g id="Текст">
  <metadata id="CorelCorpID_1Corel-Layer"/>
  <path fill="#EA5400" fill-rule="nonzero" d="M533 801c-1,-4 -1,-8 2,-11 2,-4 5,-5 10,-5l436 0c1,0 3,0 3,1l85 30c5,3 8,7 8,11l0 318c0,4 -2,7 -5,11l-18 12c-41,32 -87,56 -136,73 -49,16 -100,25 -153,25 -107,0 -196,-16 -268,-46 -72,-31 -129,-69 -172,-115 -44,-45 -74,-94 -93,-145 -18,-52 -27,-99 -27,-142 0,-1 0,-3 0,-6 1,-2 1,-4 1,-6l0 -11c-1,-3 -1,-6 -1,-10 0,-62 12,-120 36,-175 24,-55 59,-104 105,-146 12,-12 23,-22 34,-29 1,-2 3,-3 4,-4 1,-1 3,-2 4,-4 10,-6 19,-13 28,-18 9,-6 19,-12 29,-17l30 -15c19,-8 40,-15 62,-22 5,-2 8,-3 10,-3 38,-10 80,-16 124,-16l1 0 8 0 10 0c39,0 77,5 115,14 37,9 72,20 104,34 32,14 61,29 86,44 25,15 46,29 61,41l20 16c6,4 7,9 5,16l-62 186c-3,9 -10,12 -20,9l-76 -29 -2 0c-1,0 -2,0 -2,-1l-36 -34 -19 -17c-1,-1 -2,-2 -3,-3 0,-1 -1,-1 -3,-2 0,-1 0,-1 -1,-1 -1,-1 -2,-2 -3,-2 0,-1 -1,-2 -2,-3 -1,0 -2,-1 -3,-2 0,-1 -1,-1 -2,-2 -1,0 -2,-1 -4,-3l-1 0c-1,-1 -2,-2 -3,-3 -1,0 -2,-1 -3,-2l0 -1c-3,-2 -5,-3 -8,-4 -2,-2 -5,-3 -7,-5 -1,-1 -2,-1 -2,-1 -1,0 -1,0 -2,-1 0,0 -1,-1 -2,-1 -1,0 -2,-1 -2,-1 0,-1 0,-1 -1,-1l-7 -3c-6,0 -13,1 -19,1 -7,0 -14,0 -21,0 -38,0 -73,6 -107,19 -33,13 -63,32 -88,56 -25,23 -43,49 -57,78 -13,29 -20,59 -20,90 0,32 7,62 20,91 14,29 32,54 57,77 6,7 14,14 22,20 8,6 17,12 26,17 2,0 4,1 7,1 2,0 4,1 6,1 1,0 3,0 3,0 0,1 1,1 3,1l6 0 2 0c1,0 2,0 3,0 0,1 1,1 3,1l1 0 5 0 3 0 3 0 8 0 6 0 3 0 3 0 4 0 3 0 3 0c2,0 3,0 3,-1l4 0 2 0 5 0 1 0c2,-1 4,-1 5,-1l2 0c2,0 4,-1 5,-2l-19 0 -89 -31c-4,-2 -7,-4 -7,-7l-72 -184zm404 45c0,-7 -3,-10 -9,-10l-316 0c-7,0 -10,3 -10,10 0,2 0,3 1,4l14 36 19 47c0,1 0,2 1,3l1 1c1,1 3,1 5,1l185 0c4,0 6,2 8,5l0 2 1 0 0 3 0 84 0 4c-1,1 -1,2 -2,2 0,1 -1,2 -2,3l-1 0c-1,0 -1,0 -1,0 0,1 -1,1 -1,1 -1,1 -2,1 -2,1 -1,0 -1,1 -2,2 -2,0 -4,1 -5,1 -2,1 -4,2 -5,2 -1,1 -2,2 -2,2 -1,0 -1,0 -2,1 -1,1 -2,1 -2,1 -1,0 -2,1 -3,1 -2,0 -3,1 -4,2 -3,1 -6,2 -7,2 -2,1 -4,2 -5,2 -2,0 -4,1 -5,2 -2,1 -4,1 -5,2 -2,0 -4,1 -5,2 -4,1 -8,2 -12,3 -4,0 -8,1 -12,3 -2,0 -3,0 -5,0 -2,1 -3,1 -5,1 -1,1 -3,1 -6,1 -1,1 -3,2 -5,2 -9,1 -19,3 -28,3 -10,1 -19,2 -28,2 -61,0 -117,-15 -168,-44 -1,-1 -3,-2 -6,-4 -5,-3 -10,-6 -15,-9 -5,-3 -10,-7 -15,-11 -3,-2 -7,-5 -10,-7 -2,-3 -6,-6 -10,-9 -3,-3 -5,-4 -6,-5 -1,-2 -2,-3 -3,-3 -1,-1 -2,-2 -2,-3 -5,-3 -8,-6 -10,-10 -9,-8 -16,-16 -22,-25 0,-2 -1,-3 -2,-4 -1,-1 -2,-2 -3,-4 0,-1 -1,-2 -1,-2 -1,-1 -2,-2 -2,-3 -7,-10 -12,-19 -17,-29 -20,-38 -30,-79 -30,-123 0,-44 10,-86 30,-125 4,-6 7,-12 10,-17 3,-6 6,-11 10,-17 1,-2 2,-3 4,-5 5,-7 11,-14 16,-20 0,-1 1,-1 2,-1 1,-2 3,-4 4,-5 1,-2 3,-4 4,-5l7 -6 5 -5c8,-9 17,-17 27,-24 3,-2 6,-4 9,-6 3,-2 7,-4 10,-7 3,-2 7,-4 10,-6 52,-31 110,-46 174,-46 36,0 73,6 110,17 1,1 2,2 3,2 0,0 1,0 3,1 4,1 7,3 10,4 3,0 7,2 11,3 1,1 3,2 6,4l15 8c20,10 40,23 59,38 0,0 1,1 2,3l2 0c5,1 8,0 10,-5 0,0 0,-1 1,-1l26 -82c1,-1 1,-2 1,-3l0 -2c0,-1 -1,-2 -1,-3 -1,0 -1,-1 -1,-2l-1 0 0 -1c-3,-2 -5,-3 -7,-4 -2,-2 -4,-3 -6,-5l-11 -7c-2,-1 -3,-2 -4,-3 -1,-1 -2,-1 -4,-2 -5,-4 -9,-6 -12,-6 -1,-2 -3,-4 -6,-5 -64,-35 -132,-52 -206,-52 -72,0 -138,16 -199,48l-8 4c-4,2 -8,5 -12,7 -4,3 -8,5 -13,8 -11,6 -22,14 -32,21 -10,8 -20,17 -29,26 -40,38 -70,81 -92,129 -21,49 -32,101 -32,155 0,49 9,96 27,140 17,44 43,84 76,121 4,4 8,8 11,11 2,3 6,7 10,11 34,30 70,55 108,73 10,5 20,9 31,13 11,4 22,7 34,11 4,1 10,3 18,5 5,1 9,2 10,2 32,7 62,10 92,10 17,0 35,-1 52,-3 18,-2 35,-5 51,-9 2,-1 3,-2 5,-2 1,0 2,0 4,-1 19,-5 38,-11 57,-19l8 -3c14,-6 28,-14 42,-23 8,-4 15,-8 20,-12 2,-1 4,-2 5,-3 2,-1 4,-2 5,-4 2,-1 4,-2 5,-3 1,0 3,-1 4,-3l3 -2c1,-1 1,-3 1,-5l0 -244zm390 -489l86 33c4,1 6,4 6,7l0 858c0,8 -4,12 -12,12l-185 0c-2,0 -3,0 -5,-1l-83 -30c-5,-3 -8,-7 -8,-13l0 -866 198 0 3 0zm-143 49c-5,0 -8,3 -8,9l0 757c0,8 4,13 12,13l75 0c8,0 13,-5 13,-13l0 -757c0,-6 -3,-9 -9,-9l-83 0zm581 193c-8,0 -12,4 -12,12l0 162c0,12 5,18 16,18l295 0 4 0 84 31c5,2 8,6 8,11l0 178c0,8 -4,12 -12,12l-383 0c-8,0 -12,5 -12,13l0 217c0,9 -5,14 -14,14l-182 0c-2,0 -4,0 -5,-1l-83 -30c-6,-2 -8,-6 -8,-13l0 -861 704 0c3,0 5,1 7,2l83 30c5,3 8,7 8,11l0 181c0,8 -4,13 -11,13l-487 0zm-256 -184c0,1 0,1 0,2 -1,1 -1,2 -1,3l0 755c0,7 3,11 10,11l80 0c2,0 5,-1 7,-4 2,-2 3,-4 3,-7l0 -224c0,-7 3,-10 10,-10l387 0c9,0 13,-4 13,-13l0 -75c0,-8 -4,-12 -13,-12l-387 0c-3,0 -5,-2 -9,-5l0 -1 0 -2c-1,0 -1,-2 -1,-3l0 -306c0,-2 0,-3 1,-4 0,-1 0,-2 0,-3 4,-3 6,-5 9,-5l492 0c7,0 10,-3 10,-10l0 -82c0,-4 -1,-6 -2,-8 -2,-1 -4,-2 -8,-2l-592 0c-3,0 -6,1 -9,5z"/>
 </g>
</svg>
